<?xml version="1.0" encoding="UTF-8"?>
<svg width="169px" height="57px" viewBox="0 0 169 57" version="1.1" xmlns="http://www.w3.org/2000/svg" xmlns:xlink="http://www.w3.org/1999/xlink">
    <!-- Generator: Sketch 52.6 (67491) - http://www.bohemiancoding.com/sketch -->
    <title>Logo</title>
    <desc>Created with Sketch.</desc>
    <g id="Page-1" stroke="none" stroke-width="1" fill="none" fill-rule="evenodd">
        <path d="M153.101185,26.7871081 C160.008159,27.9353281 169.327881,17.6183042 167.981445,24.2270966 C166.648807,30.7681678 158.717126,32.1762406 152.767193,30.9546959 C152.577322,31.7243934 152.314925,32.4528267 151.98,33.14 C151.206663,34.7266746 150.160007,35.9666622 148.84,36.86 C147.519993,37.7533378 146.060008,38.2 144.46,38.2 C142.886659,38.2 141.546672,37.8066706 140.44,37.02 C139.346419,36.2426351 138.519756,35.2244186 137.959988,33.9653207 L131.3,38.44 C130.286662,43.9600276 128.960008,48.2999842 127.32,51.46 C125.679992,54.6200158 123.593346,56.2 121.06,56.2 C119.699993,56.2 118.593338,55.7800042 117.74,54.94 C116.886662,54.0999958 116.46,53.0000068 116.46,51.64 C116.46,50.3866604 116.746664,49.1066732 117.32,47.8 C117.893336,46.4933268 118.959992,44.9933418 120.52,43.3 C122.080008,41.6066582 124.286652,39.6666776 127.14,37.48 L127.26,36.56 C127.446668,35.5733284 127.659999,34.1600092 127.9,32.32 C127.366664,34.2400096 126.620005,35.699995 125.66,36.7 C124.699995,37.700005 123.686672,38.2 122.62,38.2 C121.419994,38.2 120.440004,37.6466722 119.68,36.54 C118.919996,35.4333278 118.54,34.0533416 118.54,32.4 C118.54,32.1753868 118.541682,31.9528761 118.545045,31.7324677 C117.632205,32.1774912 116.670531,32.4 115.66,32.4 C114.24666,32.4 113.173337,32.0400036 112.44,31.32 C111.706663,30.5999964 111.34,29.6266728 111.34,28.4 C111.34,27.999998 111.38,27.600002 111.46,27.2 C111.513334,26.666664 111.54,26.3066676 111.54,26.12 C111.54,25.6933312 111.393335,25.48 111.1,25.48 C110.699998,25.48 110.173337,25.9266622 109.52,26.82 C108.866663,27.7133378 108.220003,28.893326 107.58,30.36 C106.939997,31.826674 106.420002,33.3733252 106.02,35 C105.726665,36.2533396 105.386669,37.0999978 105,37.54 C104.613331,37.9800022 104.006671,38.2 103.18,38.2 C102.166662,38.2 101.453335,37.666672 101.04,36.6 C100.626665,35.533328 100.42,33.8266784 100.42,31.48 C100.42,31.1301643 100.425024,30.7820942 100.435072,30.4357897 C99.4542482,30.6334905 98.4225609,30.7548933 97.34,30.8 C96.806664,33.0133444 95.8000074,34.7999932 94.32,36.16 C92.8399926,37.5200068 91.2066756,38.2 89.42,38.2 C86.7266532,38.2 84.7666728,37.1733436 83.54,35.12 C83.3757751,34.8451018 83.2225434,34.5537147 83.0803049,34.2458386 C82.1883665,35.109591 81.0682707,35.9209735 79.72,36.68 C77.919991,37.6933384 75.9933436,38.2 73.94,38.2 C71.139986,38.2 68.9666744,37.4400076 67.42,35.92 C67.1376823,35.6425498 66.8811309,35.3464425 66.6503459,35.0316777 C65.9928665,35.6736004 65.3027533,36.2563726 64.58,36.78 C63.2733268,37.7266714 61.9800064,38.2 60.7,38.2 C58.6733232,38.2 57.126672,37.0133452 56.06,34.64 C54.9399944,36.0533404 53.9600042,36.9999976 53.12,37.48 C52.2799958,37.9600024 51.3000056,38.2 50.18,38.2 C48.5533252,38.2 47.2133386,37.5933394 46.16,36.38 C45.1066614,35.1666606 44.58,33.5866764 44.58,31.64 C44.58,31.2693043 44.5936876,30.9032392 44.6210628,30.5418044 C43.8138248,30.6775404 42.9734722,30.7636053 42.1,30.8 C41.5933308,33.0400112 40.5933408,34.8333266 39.1,36.18 C37.6066592,37.5266734 35.9133428,38.2 34.02,38.2 C32.419992,38.2 31.053339,37.8133372 29.92,37.04 C29.3213244,36.6314919 28.7989231,36.1522981 28.3527924,35.6024141 C28.2210404,35.6711101 28.083443,35.736972 27.94,35.8 C26.0466572,36.6266708 24.0800102,37.2333314 22.04,37.62 C19.9999898,38.0066686 18.0600092,38.2 16.22,38.2 C13.0466508,38.2 10.2866784,37.6200058 7.94,36.46 C5.5933216,35.2999942 3.7933396,33.653344 2.54,31.52 C1.2866604,29.386656 0.66,26.9066808 0.66,24.08 C0.66,20.1599804 1.3999926,16.6800152 2.88,13.64 C4.3600074,10.5999848 6.366654,8.246675 8.9,6.58 C11.433346,4.913325 14.2466512,4.08 17.34,4.08 C20.2200144,4.08 22.4066592,4.8199926 23.9,6.3 C25.3933408,7.7800074 26.14,9.7333212 26.14,12.16 C26.14,13.7866748 25.8533362,15.0933284 25.28,16.08 C24.7066638,17.0666716 23.886672,17.56 22.82,17.56 C22.0733296,17.56 21.4866688,17.3866684 21.06,17.04 C20.6333312,16.6933316 20.42,16.18667 20.42,15.52 C20.42,15.2799988 20.4733328,14.8400032 20.58,14.2 C20.7400008,13.399996 20.82,12.7600024 20.82,12.28 C20.82,9.8533212 19.5266796,8.64 16.94,8.64 C15.1799912,8.64 13.500008,9.2133276 11.9,10.36 C10.299992,11.5066724 9.0066716,13.1933222 8.02,15.42 C7.0333284,17.6466778 6.54,20.293318 6.54,23.36 C6.54,26.560016 7.4333244,29.0333246 9.22,30.78 C11.0066756,32.5266754 13.6466492,33.4 17.14,33.4 C18.873342,33.4 20.6266578,33.1800022 22.4,32.74 C23.6907877,32.4197294 25.0839912,31.9758399 26.5796333,31.4083238 C26.4998776,30.8867185 26.46,30.3506112 26.46,29.8 C26.46,27.7733232 26.8466628,25.9666746 27.62,24.38 C28.3933372,22.7933254 29.4599932,21.5533378 30.82,20.66 C32.1800068,19.7666622 33.6866584,19.32 35.34,19.32 C37.3666768,19.32 38.9999938,20.019993 40.24,21.42 C41.4800062,22.820007 42.2066656,24.5466564 42.42,26.6 C43.3894915,26.5381176 44.5025727,26.3645462 45.7592644,26.0792822 C45.8173629,25.9521288 45.877608,25.8257014 45.94,25.7 C46.8466712,23.8733242 48.0933254,22.3800058 49.68,21.22 C51.2666746,20.0599942 53.0466568,19.3733344 55.02,19.16 C55.5266692,13.9866408 56.4933262,9.566685 57.92,5.9 C59.3466738,2.233315 61.2199884,0.4 63.54,0.4 C64.6866724,0.4 65.6399962,0.9199948 66.4,1.96 C67.1600038,3.0000052 67.54,4.5733228 67.54,6.68 C67.54,9.6666816 66.806674,13.15998 65.34,17.16 C63.873326,21.16002 61.9133456,25.2666456 59.46,29.48 C59.5666672,31.0266744 59.7999982,32.13333 60.16,32.8 C60.5200018,33.46667 60.9799972,33.8 61.54,33.8 C62.2600036,33.8 62.9933296,33.4800032 63.74,32.84 C64.1545306,32.4846881 64.6471383,31.9978749 65.2178284,31.379555 C65.139276,30.8414795 65.1,30.2749614 65.1,29.68 C65.1,27.8399908 65.4866628,26.1266746 66.26,24.54 C67.0333372,22.9533254 68.1066598,21.693338 69.48,20.76 C70.8533402,19.826662 72.406658,19.36 74.14,19.36 C75.6866744,19.36 76.926662,19.8199954 77.86,20.74 C78.793338,21.6600046 79.26,22.9066588 79.26,24.48 C79.26,26.3200092 78.6000066,27.8999934 77.28,29.22 C75.9599934,30.5400066 73.7266824,31.5866628 70.58,32.36 C71.24667,33.5866728 72.513324,34.2 74.38,34.2 C75.580006,34.2 76.946659,33.7800042 78.48,32.94 C79.7918851,32.2213151 80.9524738,31.3123201 81.9617911,30.2129941 C81.7872634,29.0062296 81.7,27.6685665 81.7,26.2 C81.7,22.7599828 82.1266624,19.0200202 82.98,14.98 C83.8333376,10.9399798 85.0799918,7.5000142 86.72,4.66 C88.3600082,1.8199858 90.313322,0.4 92.58,0.4 C93.8066728,0.4 94.7933296,0.9266614 95.54,1.98 C96.2866704,3.0333386 96.66,4.3999916 96.66,6.08 C96.66,8.2666776 96.2466708,10.4399892 95.42,12.6 C94.5933292,14.7600108 93.2200096,17.0266548 91.3,19.4 C93.0866756,19.533334 94.5399944,20.2733266 95.66,21.62 C96.7800056,22.9666734 97.4466656,24.6266568 97.66,26.6 C98.5871465,26.5408204 99.6456135,26.3794955 100.835419,26.1160218 C101.081209,24.5723634 101.436069,23.0670262 101.9,21.6 C102.140001,20.8266628 102.533331,20.2600018 103.08,19.9 C103.626669,19.5399982 104.393328,19.36 105.38,19.36 C105.913336,19.36 106.286666,19.426666 106.5,19.56 C106.713334,19.693334 106.82,19.9466648 106.82,20.32 C106.82,20.7466688 106.620002,21.7066592 106.22,23.2 C105.953332,24.266672 105.740001,25.199996 105.58,26 C105.419999,26.800004 105.286667,27.7866608 105.18,28.96 C106.060004,26.6666552 107.046661,24.8000072 108.14,23.36 C109.233339,21.9199928 110.306661,20.8933364 111.36,20.28 C112.413339,19.6666636 113.379996,19.36 114.26,19.36 C115.993342,19.36 116.86,20.226658 116.86,21.96 C116.86,22.3066684 116.740001,23.14666 116.5,24.48 C116.286666,25.546672 116.18,26.213332 116.18,26.48 C116.18,27.413338 116.51333,27.88 117.18,27.88 C117.66447,27.88 118.238747,27.633019 118.902838,27.1390522 C118.914924,27.0589908 118.927311,26.9793068 118.94,26.9 C119.206668,25.233325 119.646664,23.466676 120.26,21.6 C120.526668,20.799996 120.899998,20.2266684 121.38,19.88 C121.860002,19.5333316 122.619995,19.36 123.66,19.36 C124.24667,19.36 124.653332,19.4533324 124.88,19.64 C125.106668,19.8266676 125.22,20.1066648 125.22,20.48 C125.22,20.6933344 125.073335,21.4133272 124.78,22.64 C124.513332,23.6266716 124.300001,24.519996 124.14,25.32 C123.926666,26.4133388 123.740001,27.459995 123.58,28.46 C123.419999,29.460005 123.34,30.2799968 123.34,30.92 C123.34,31.9333384 123.619997,32.44 124.18,32.44 C124.580002,32.44 125.079997,32.040004 125.68,31.24 C126.280003,30.439996 126.919997,29.2266748 127.6,27.6 C128.280003,25.9733252 128.939997,23.9733452 129.58,21.6 C129.793334,20.799996 130.119998,20.2266684 130.56,19.88 C131.000002,19.5333316 131.659996,19.36 132.54,19.36 C133.153336,19.36 133.579999,19.4399992 133.82,19.6 C134.060001,19.7600008 134.18,20.0266648 134.18,20.4 C134.18,21.06667 133.833337,23.3599804 133.14,27.28 L132.1,33.72 C133.805171,32.4355856 135.473541,31.2431361 137.105145,30.1426274 C137.101715,30.02899 137.1,29.9147809 137.1,29.8 C137.1,27.7733232 137.479996,25.9666746 138.24,24.38 C139.000004,22.7933254 140.033327,21.5533378 141.34,20.66 C142.646673,19.7666622 144.113325,19.32 145.74,19.32 C147.313341,19.32 148.659994,19.7133294 149.78,20.5 C150.900006,21.2866706 151.739997,22.3199936 152.3,23.6 C152.739624,24.6048551 153.006685,25.6672178 153.101185,26.7871081 Z M34.34,33.96 C35.1933376,33.96 35.9333302,33.6133368 36.56,32.92 C37.1866698,32.2266632 37.6066656,31.2266732 37.82,29.92 C36.9933292,29.3599972 36.3600022,28.6266712 35.92,27.72 C35.4799978,26.8133288 35.26,25.8533384 35.26,24.84 C35.26,24.4133312 35.2999996,23.9866688 35.38,23.56 L35.18,23.56 C34.113328,23.56 33.2266702,24.0733282 32.52,25.1 C31.8133298,26.1266718 31.46,27.573324 31.46,29.44 C31.46,30.906674 31.7466638,32.0266628 32.32,32.8 C32.8933362,33.5733372 33.5666628,33.96 34.34,33.96 Z M145.54,33.8 C146.393338,33.8 147.13333,33.4533368 147.76,32.76 C148.38667,32.0666632 148.806666,31.0666732 149.02,29.76 C148.193329,29.1999972 147.560002,28.4666712 147.12,27.56 C146.679998,26.6533288 146.46,25.6933384 146.46,24.68 C146.46,24.2533312 146.5,23.8266688 146.58,23.4 L146.38,23.4 C145.313328,23.4 144.42667,23.9133282 143.72,24.94 C143.01333,25.9666718 142.66,27.413324 142.66,29.28 C142.66,30.746674 142.946664,31.8666628 143.52,32.64 C144.093336,33.4133372 144.766663,33.8 145.54,33.8 Z M63.1,4.32 C62.5933308,4.32 62.0866692,5.219991 61.58,7.02 C61.0733308,8.820009 60.6400018,11.1733188 60.28,14.08 C59.9199982,16.9866812 59.6600008,20.0266508 59.5,23.2 C62.4866816,16.6933008 63.98,11.4666864 63.98,7.52 C63.98,6.5066616 63.8933342,5.7200028 63.72,5.16 C63.5466658,4.5999972 63.3400012,4.32 63.1,4.32 Z M51.58,34.16 C52.0866692,34.16 52.5933308,33.9533354 53.1,33.54 C53.6066692,33.1266646 54.2466628,32.3600056 55.02,31.24 C54.753332,29.7999928 54.62,28.1866756 54.62,26.4 C54.62,25.7599968 54.6466664,24.7200072 54.7,23.28 C53.233326,23.7333356 52.0133382,24.7133258 51.04,26.22 C50.0666618,27.7266742 49.58,29.3999908 49.58,31.24 C49.58,33.1866764 50.24666,34.16 51.58,34.16 Z M73.46,23.28 C72.4733284,23.28 71.6400034,23.8533276 70.96,25 C70.2799966,26.1466724 69.94,27.5333252 69.94,29.16 L69.94,29.24 C71.5133412,28.8666648 72.7533288,28.3066704 73.66,27.56 C74.5666712,26.8133296 75.02,25.9466716 75.02,24.96 C75.02,24.4533308 74.8800014,24.0466682 74.6,23.74 C74.3199986,23.4333318 73.9400024,23.28 73.46,23.28 Z M91.66,4.36 C91.126664,4.36 90.5466698,5.1533254 89.92,6.74 C89.2933302,8.3266746 88.713336,10.4799864 88.18,13.2 C87.646664,15.9200136 87.246668,18.8933172 86.98,22.12 C88.7400088,18.8933172 90.1466614,16.046679 91.2,13.58 C92.2533386,11.113321 92.78,8.9200096 92.78,7 C92.78,6.1466624 92.680001,5.4933356 92.48,5.04 C92.279999,4.5866644 92.0066684,4.36 91.66,4.36 Z M89.58,33.96 C90.4066708,33.96 91.1399968,33.6133368 91.78,32.92 C92.4200032,32.2266632 92.8466656,31.2266732 93.06,29.92 C92.2333292,29.3599972 91.6000022,28.6266712 91.16,27.72 C90.7199978,26.8133288 90.5,25.8533384 90.5,24.84 C90.5,24.4666648 90.5533328,23.9600032 90.66,23.32 L90.54,23.32 C89.4466612,23.32 88.533337,23.8599946 87.8,24.94 C87.066663,26.0200054 86.7,27.4666576 86.7,29.28 C86.7,30.8000076 86.9866638,31.959996 87.56,32.76 C88.1333362,33.560004 88.8066628,33.96 89.58,33.96 Z M121.5,52.32 C122.16667,52.32 122.913329,51.5466744 123.74,50 C124.566671,48.4533256 125.393329,45.880018 126.22,42.28 C124.166656,44.013342 122.680005,45.5933262 121.76,47.02 C120.839995,48.4466738 120.38,49.693328 120.38,50.76 C120.38,51.2133356 120.466666,51.5866652 120.64,51.88 C120.813334,52.1733348 121.099998,52.32 121.5,52.32 Z" id="Logo" fill="#ECF1F4"></path>
    </g>
</svg>