<?xml version="1.0" standalone="no"?>
<!DOCTYPE svg PUBLIC "-//W3C//DTD SVG 20010904//EN"
 "http://www.w3.org/TR/2001/REC-SVG-20010904/DTD/svg10.dtd">
<svg version="1.0" xmlns="http://www.w3.org/2000/svg"
 width="260.000000pt" height="260.000000pt" viewBox="0 0 260.000000 260.000000"
 preserveAspectRatio="xMidYMid meet">
<metadata>
Created by potrace 1.11, written by Peter Selinger 2001-2013
</metadata>
<g transform="translate(0.000000,260.000000) scale(0.100000,-0.100000)"
fill="#000000" stroke="none">
<path d="M1 2128 l1 -473 18 80 c37 163 108 311 172 356 16 12 50 24 74 27 41
4 47 2 78 -32 24 -25 37 -49 41 -80 15 -97 -34 -256 -106 -348 -17 -21 -30
-40 -28 -42 2 -1 25 -13 52 -25 51 -24 91 -79 103 -139 6 -28 11 -32 38 -32
44 0 53 9 67 65 16 65 35 102 58 115 28 15 81 12 87 -4 3 -8 -4 -57 -15 -110
-26 -117 -26 -133 -2 -81 69 151 197 240 270 189 22 -16 23 -22 18 -83 -3 -36
-8 -73 -11 -81 -4 -9 0 -24 8 -35 12 -16 18 -17 39 -8 19 9 27 22 32 55 11 66
44 147 65 158 27 14 76 12 89 -4 9 -10 6 -34 -9 -97 -25 -105 -37 -224 -22
-233 32 -20 87 65 133 209 17 55 41 108 51 118 25 21 86 23 94 2 3 -8 -6 -84
-20 -169 -36 -215 -39 -205 39 -149 60 43 65 49 65 84 0 93 70 199 152 234
117 48 249 -25 273 -151 l6 -36 54 4 c41 3 84 20 178 68 75 38 131 61 141 57
23 -9 20 -53 -8 -113 -44 -95 -126 -136 -279 -139 l-98 -2 -21 -43 c-45 -90
-150 -152 -231 -135 -47 10 -111 50 -127 79 -7 14 -17 26 -22 26 -4 0 -45 -25
-91 -55 l-83 -55 -27 -113 c-52 -210 -123 -333 -208 -359 -76 -22 -152 18
-165 88 -8 46 11 119 47 175 28 44 125 143 201 204 30 25 37 38 43 80 l6 50
-23 -39 c-61 -103 -163 -107 -204 -9 -8 18 -14 46 -14 63 l0 30 -52 -6 c-98
-11 -145 30 -141 123 6 128 -87 4 -146 -194 -19 -63 -25 -72 -53 -82 -62 -22
-98 33 -98 147 0 56 -2 57 -57 46 -25 -5 -33 -13 -42 -46 -18 -58 -94 -131
-153 -146 -75 -19 -144 2 -191 58 -14 16 -30 30 -36 30 -8 0 -11 -182 -11
-600 l0 -600 231 0 231 0 582 364 c319 200 784 491 1031 647 248 155 467 292
487 303 l38 21 0 633 0 632 -1300 0 -1300 0 1 -472z"/>
<path d="M225 1988 c-24 -34 -52 -138 -75 -271 -31 -181 -27 -188 35 -66 29
58 63 134 74 169 41 125 18 240 -34 168z"/>
<path d="M173 1485 c-56 -39 -71 -189 -23 -240 33 -35 72 -33 103 5 38 44 42
68 18 93 -27 29 -51 89 -51 127 0 33 -14 38 -47 15z"/>
<path d="M1681 1484 c-32 -23 -51 -74 -51 -136 0 -62 15 -97 51 -117 34 -19
75 1 100 49 17 31 17 36 4 55 -29 39 -55 100 -55 133 0 36 -13 40 -49 16z"/>
<path d="M1121 934 c-29 -31 -61 -74 -71 -95 -25 -47 -26 -97 -4 -106 24 -9
46 9 72 58 24 47 67 188 59 195 -2 3 -28 -21 -56 -52z"/>
<path d="M2085 639 c-280 -176 -623 -391 -761 -477 l-251 -157 760 -3 c418 -1
762 -1 764 1 2 2 2 218 1 480 l-3 475 -510 -319z"/>
</g>
</svg>
